General
Complete name                    : Dante´s.Inferno.2010.avi
Format                           : AVI
File size                        : 1.37 GiB
Duration                         : 1h 24mn
Overall bit rate                 : 2 318 Kbps

Video

Format                           : MPEG-4 Visual
Codec ID/Hint                    : XviD
Duration                         : 1h 24mn
Bit rate                         : 1 859 Kbps
Width                            : 720 pixels
Height                           : 576 pixels
Display aspect ratio             : 16:9
Stream size                      : 1.10 GiB (80%)
Writing library                  : XviD 1.1.2 (UTC 2006-11-01)

Audio

Format                           : AC-3
Duration                         : 1h 24mn
Bit rate                         : 448 Kbps
Channel(s)                       : 6 channels
Channel positions                : Front: L C R, Side: L R, LFE
Sampling rate                    : 48.0 KHz
Stream size                      : 271 MiB (19%)
Language.........................: English


Text......: English, French, Italian, German, Spanish, Portuguese,
            Dutch, Norwegian, Swedish, Finnish, Danish, Turkish
